<svg xmlns="http://www.w3.org/2000/svg" xmlns:xlink="http://www.w3.org/1999/xlink" version="1.1" x="0px" y="0px" viewBox="0 0 100 125" style="enable-background:new 0 0 100 100;" xml:space="preserve"><path d="M77.944,79.435c0,1.873-1.524,3.397-3.397,3.397H18.833c-1.873,0-3.397-1.524-3.397-3.397V23.72  c0-1.873,1.524-3.397,3.397-3.397h44.819c2.011-1.962,4.02-3.776,6.025-5.436H18.833C13.963,14.888,10,18.85,10,23.72v55.714  c0,4.87,3.963,8.833,8.833,8.833h55.714c4.87,0,8.833-3.963,8.833-8.833V30.135c-1.897,2.098-3.708,4.258-5.436,6.458  C77.944,36.593,77.944,79.435,77.944,79.435z M89.519,12.141l-0.073-0.055c-0.312-0.235-0.695-0.353-1.14-0.353  c-0.916,0-2.429,0.569-4.624,1.738c-1.681,0.895-3.54,2.035-4.851,2.974c-5.772,4.015-11.693,9.534-17.599,16.406  c-4.885,5.683-9.636,12.134-14.138,19.2c-0.457,0.716-1.492,0.75-1.997,0.068c-2.407-3.256-6.13-7.95-10.172-11.798  c-1.21-1.151-2.791-1.785-4.456-1.785c-1.094,0-2.176,0.277-3.131,0.803c-0.998,0.549-1.837,1.361-2.427,2.348l-0.107,0.178  c-0.788,1.322-1.08,2.885-0.82,4.402c0.259,1.515,1.052,2.892,2.232,3.88c6.995,5.855,12.652,13.821,18.121,21.524  c0.264,0.372,0.527,0.743,0.79,1.112c0.428,0.6,1.093,0.945,1.828,0.945h0.001c0.886-0.001,1.667-0.5,2.039-1.302  c7.238-15.628,18.981-38.31,37.304-54.814l0.003-0.002c0.036-0.033,0.071-0.068,0.103-0.105c0.129-0.146,0.291-0.299,0.469-0.459  c0.18-0.16,0.379-0.326,0.583-0.498c0.955-0.8,2.036-1.707,2.452-2.977l0.028-0.085C90.102,12.993,89.931,12.453,89.519,12.141z"/><text x="0" y="115" fill="#000000" font-size="5px" font-weight="bold" font-family="'Helvetica Neue', Helvetica, Arial-Unicode, Arial, Sans-serif">Created by 4urbrand</text><text x="0" y="120" fill="#000000" font-size="5px" font-weight="bold" font-family="'Helvetica Neue', Helvetica, Arial-Unicode, Arial, Sans-serif">from the Noun Project</text></svg>